<?xml version="1.0" encoding="utf-8"?>
<!-- Generator: Adobe Illustrator 16.0.0, SVG Export Plug-In . SVG Version: 6.00 Build 0)  -->
<!DOCTYPE svg PUBLIC "-//W3C//DTD SVG 1.1//EN" "http://www.w3.org/Graphics/SVG/1.1/DTD/svg11.dtd">
<svg version="1.1" id="Capa_1" xmlns="http://www.w3.org/2000/svg" xmlns:xlink="http://www.w3.org/1999/xlink" x="0px" y="0px"
	 width="236px" height="176px" viewBox="0 0 236 176" enable-background="new 0 0 236 176" xml:space="preserve">
<path fill="#F9A51A" d="M117.862,104.58L117.862,104.58l0.019-0.016v-0.03C117.874,104.549,117.869,104.564,117.862,104.58z"/>
<polygon fill="#F9A51A" points="117.87,104.584 117.873,104.581 117.872,104.581 "/>
<polygon fill="#F9A51A" points="117.871,104.581 117.872,104.581 117.871,104.58 "/>
<g>
	<path fill="#58595B" d="M72.537,155.813c0,9.767-7.755,17.188-18.145,17.188c-10.34,0-18.095-7.373-18.095-17.188
		c0-9.767,7.755-16.995,18.095-16.995C64.782,138.817,72.537,146.095,72.537,155.813z M45.009,155.861
		c0,5.648,4.357,10.005,9.48,10.005c5.169,0,9.286-4.356,9.286-10.005c0-5.649-4.117-9.91-9.286-9.91
		C49.318,145.951,45.009,150.212,45.009,155.861z"/>
	<path fill="#58595B" d="M110.452,155.813c0,9.767-7.756,17.188-18.144,17.188c-10.34,0-18.094-7.373-18.094-17.188
		c0-9.767,7.753-16.995,18.094-16.995C102.696,138.817,110.452,146.095,110.452,155.813z M82.925,155.861
		c0,5.648,4.357,10.005,9.479,10.005c5.172,0,9.287-4.356,9.287-10.005c0-5.649-4.115-9.91-9.287-9.91
		C87.234,145.951,82.925,150.212,82.925,155.861z"/>
	<path fill="#58595B" d="M126.729,139.104c8.568,0,13.497,4.214,13.497,11.682c0,7.853-4.929,12.397-13.497,12.397h-6.082
		c0,0,0,2.734,0,5.394c0,1.964-1.902,4.025-4.04,4.025c-1.925,0-4.479,0.005-4.479,0.005v-33.503H126.729z M120.647,156.483h5.65
		c3.734,0,5.889-1.866,5.889-5.411c0-3.494-2.154-5.265-5.889-5.265h-5.65V156.483z"/>
	<path fill="#58595B" d="M168.471,142.551c0,0-1.613,1.864-2.811,3.277c-1.331,1.569-2.884,2.039-4.746,1.172
		c-2.144-1.025-4.475-1.289-6.375-1.289c-2.201,0-3.687,0.814-3.687,2.44c0,5.794,17.714,2.49,17.714,14.602
		c0,6.703-5.937,10.245-13.404,10.245c-5.603,0-11.346-2.107-15.319-5.362c0,0,1.65-1.959,2.558-3.028
		c1.325-1.565,3.114-1.699,4.467-1.077c3.854,1.836,5.555,2.576,8.391,2.576c2.68,0,4.356-1.007,4.356-2.924
		c0-5.935-17.713-2.391-17.713-14.264c0-6.176,5.313-10.101,13.356-10.101C160.094,138.818,165.022,140.301,168.471,142.551z"/>
	<path fill="#58595B" d="M206.484,155.813c0,9.767-7.756,17.188-18.142,17.188c-10.343,0-18.098-7.373-18.098-17.188
		c0-9.767,7.755-16.995,18.098-16.995C198.728,138.817,206.484,146.095,206.484,155.813z M178.958,155.861
		c0,5.648,4.357,10.005,9.48,10.005c5.168,0,9.285-4.356,9.285-10.005c0-5.649-4.117-9.91-9.285-9.91
		C183.267,145.951,178.958,150.212,178.958,155.861z"/>
	<path fill="#58595B" d="M230.899,172.616h-22.737v-33.512c0,0,3.102-0.011,4.315-0.011c2.002,0,4.207,1.525,4.207,4.253
		c0,5.813,0,20.747,0,20.747s6.475,0,10.641,0c1.595,0,3.564,1.402,3.564,3.516C230.889,168.584,230.899,172.616,230.899,172.616z"
		/>
	<path fill="#58595B" d="M36.308,144.278c0,0-1.649,1.817-2.618,2.959c-1.36,1.605-3.584,1.949-5.165,0.734
		c-2.044-1.79-4.537-2.021-5.847-2.021c-5.315,0-9.336,4.213-9.336,9.718c0,5.602,4.165,10.197,9.479,10.197
		c1.834,0,3.791-0.527,5.586-1.962c1.443-0.979,3.173-0.893,4.357,0.109c1.671,1.416,3.746,3.222,3.746,3.222
		C32.318,171.654,27.177,173,22.248,173c-10.102,0-17.619-7.421-17.619-17.235c0-9.67,7.709-16.947,17.906-16.947
		C27.513,138.817,32.402,140.289,36.308,144.278z"/>
</g>
<g>
	<path fill="#FFCA05" d="M81.903,69.737l-0.006-0.005h-0.003l0.001-0.001l-0.001-0.001v21.012h21.012l-0.008-0.009
		C93.417,86.799,85.837,79.218,81.903,69.737z"/>
	<path fill="#FFCA05" d="M132.629,90.732l-0.008,0.009h21.012V69.729l-0.009,0.01C149.69,79.218,142.11,86.799,132.629,90.732z"/>
	<path fill="#FFCA05" d="M102.897,19.011l0.006-0.006v-0.002v0.001l0.003-0.003H81.894v21.012l0.009-0.008
		C85.837,30.525,93.417,22.945,102.897,19.011z"/>
	<path fill="#FFCA05" d="M153.625,40.004l0.009,0.01V19.001h-21.011l0.008,0.01C142.11,22.945,149.69,30.525,153.625,40.004z"/>
	<path fill="#FFCA05" d="M117.764,16.056c5.258,0,10.271,1.051,14.844,2.946h0.009L132.618,19v0.001h0.005L117.764,4.144
		l-14.858,14.858h0.014C107.493,17.107,112.505,16.056,117.764,16.056z"/>
	<polygon fill="#FFCA05" points="153.635,40.016 153.633,40.014 153.633,40.016 	"/>
	<path fill="#FFCA05" d="M153.633,40.027c1.895,4.574,2.946,9.585,2.946,14.844c0,5.258-1.052,10.271-2.946,14.844v0.014
		l14.858-14.857l-14.856-14.856l-0.002,0.002V40.027z"/>
	<path fill="#FFCA05" d="M78.948,54.872c0-5.259,1.052-10.271,2.946-14.844v-0.014L67.037,54.872l14.857,14.857v-0.013
		C80,65.142,78.948,60.13,78.948,54.872z"/>
	<path fill="#FFCA05" d="M117.764,93.688c-5.26,0-10.271-1.051-14.846-2.946h-0.013l14.858,14.858l14.825-14.826l-0.018-0.018
		C128.007,92.642,123.008,93.688,117.764,93.688z"/>
	<polygon fill="#FFCA05" points="132.618,90.741 132.618,90.746 132.622,90.741 	"/>
	<polygon fill="#FFCA05" points="81.897,69.732 81.903,69.737 81.9,69.732 	"/>
	<polygon fill="#FFCA05" points="153.633,40.027 153.633,40.018 153.631,40.021 	"/>
	<polygon fill="#FFCA05" points="132.617,19.001 132.608,19.001 132.614,19.004 	"/>
	<polygon fill="#FFCA05" points="132.618,90.738 132.618,90.741 132.622,90.741 132.629,90.732 	"/>
	<polygon fill="#FFCA05" points="102.903,19.005 102.897,19.011 102.903,19.008 	"/>
	<polygon fill="#FFCA05" points="153.628,69.729 153.631,69.732 153.627,69.732 153.625,69.739 153.633,69.729 153.633,69.715 	"/>
	<polygon fill="#FFCA05" points="81.903,40.005 81.894,40.014 81.899,40.014 	"/>
	<polygon fill="#FFCA05" points="81.899,69.728 81.894,69.716 81.894,69.729 81.895,69.73 	"/>
	<polygon fill="#FFCA05" points="102.908,90.737 102.905,90.74 102.905,90.736 102.898,90.732 102.906,90.741 102.918,90.741 	"/>
	<polygon fill="#FFCA05" points="81.898,40.018 81.894,40.014 81.894,40.027 	"/>
	<polygon fill="#FFCA05" points="132.618,19.006 132.63,19.011 132.623,19.001 132.618,19.001 	"/>
	<polygon fill="#FFCA05" points="153.628,40.016 153.633,40.016 153.633,40.014 153.625,40.004 	"/>
	<polygon fill="#FFCA05" points="102.906,19.007 102.919,19.001 102.906,19.001 102.903,19.004 	"/>
	<path fill="#F6921E" d="M153.625,40.004c-3.935-9.479-11.515-17.059-20.994-20.993c-0.004-0.003-0.008-0.004-0.013-0.005v21.009
		l21.011,0C153.627,40.012,153.626,40.008,153.625,40.004z"/>
	<path fill="#F6921E" d="M102.903,19.008c-0.002,0.001-0.004,0.001-0.006,0.003c-9.479,3.934-17.06,11.514-20.994,20.994
		c-0.001,0.003-0.002,0.005-0.004,0.008l21.004,0V19.008z"/>
	<path fill="#F6921E" d="M132.618,69.732v21.006c0.005-0.002,0.009-0.004,0.012-0.006c9.48-3.934,17.061-11.515,20.995-20.994
		c0.001-0.003,0.002-0.005,0.003-0.007H132.618z"/>
	<path fill="#F6921E" d="M132.608,19.001c-4.573-1.895-9.586-2.946-14.844-2.946c-5.259,0-10.271,1.051-14.845,2.946
		c-0.005,0.002-0.01,0.004-0.014,0.005l14.854,14.854l14.854-14.856C132.612,19.003,132.611,19.003,132.608,19.001z"/>
	<path fill="#F6921E" d="M81.898,40.018c-0.002,0.003-0.003,0.006-0.004,0.01c-1.895,4.573-2.946,9.585-2.946,14.844
		c0,5.258,1.052,10.271,2.946,14.844c0.002,0.004,0.003,0.008,0.005,0.012l14.844-14.846L81.898,40.018z"/>
	<path fill="#F6921E" d="M153.633,40.027c0-0.002-0.002-0.004-0.002-0.007l-14.856,14.854l14.854,14.854
		c0.002-0.004,0.003-0.009,0.005-0.014c1.895-4.573,2.946-9.585,2.946-14.844C156.58,49.613,155.528,44.602,153.633,40.027z"/>
	<path fill="#F6921E" d="M102.905,69.732H81.9c0.001,0.002,0.002,0.004,0.003,0.005c3.935,9.48,11.515,17.062,20.995,20.995
		c0.002,0.002,0.005,0.002,0.007,0.004V69.732z"/>
	<path fill="#F6921E" d="M132.557,90.741l-14.816-14.835l-14.833,14.831c0.004,0.001,0.007,0.003,0.011,0.004
		c4.574,1.896,9.586,2.946,14.846,2.946c5.244,0,10.243-1.046,14.808-2.932L132.557,90.741z"/>
	<polygon fill="#F05C22" points="132.618,19 132.617,19.001 132.618,19.001 	"/>
	<rect x="132.615" y="19.003" fill="#F05C22" width="0.004" height="0.001"/>
	<polygon fill="#F05C22" points="117.759,33.86 123.913,40.014 123.917,40.015 132.618,40.015 132.618,19.006 132.614,19.004 	"/>
	<path fill="#CF1F25" d="M132.618,48.713v-8.698h-8.701C127.845,41.644,130.987,44.784,132.618,48.713z"/>
	<path fill="#CF1F25" d="M111.603,40.019l0.004-0.003l-8.704-0.001v8.705l0.007-0.006C104.539,44.788,107.677,41.648,111.603,40.019
		z"/>
	<path fill="#CF1F25" d="M117.764,38.793c2.178,0,4.254,0.436,6.148,1.22l-6.153-6.153l-6.152,6.155h0.005
		C113.507,39.229,115.584,38.793,117.764,38.793z"/>
	<polygon fill="#F05C22" points="102.903,19.003 102.903,19.005 102.903,19.004 	"/>
	<rect x="102.902" y="19.006" fill="#F05C22" width="0.004" height="0"/>
	<polygon fill="#F05C22" points="102.903,40.014 111.607,40.015 117.759,33.86 102.906,19.007 102.903,19.008 	"/>
	<polygon fill="#F6921E" points="111.612,40.015 111.607,40.015 111.603,40.019 	"/>
	<path fill="#F6921E" d="M102.904,61.016v0.035l0.022,0.022C102.918,61.055,102.912,61.035,102.904,61.016z"/>
	<path fill="#F6921E" d="M102.91,48.713l-0.007,0.006v0.009C102.906,48.723,102.908,48.718,102.91,48.713z"/>
	<path fill="#F6921E" d="M123.907,69.732h0.01l0.006-0.006C123.917,69.728,123.912,69.73,123.907,69.732z"/>
	<polygon fill="#F6921E" points="132.618,61.031 132.618,61.031 132.618,61.031 	"/>
	<path fill="#F6921E" d="M111.543,69.702l0.03,0.03h0.047C111.595,69.721,111.569,69.712,111.543,69.702z"/>
	<polygon fill="#F05C22" points="153.633,40.018 153.635,40.016 153.633,40.016 	"/>
	<rect x="153.63" y="40.014" fill="#F05C22" width="0.002" height="0.005"/>
	<polygon fill="#F05C22" points="132.618,48.713 132.623,48.723 138.775,54.875 153.631,40.021 153.628,40.016 132.618,40.015 	"/>
	<path fill="#CF1F25" d="M132.618,61.031L132.618,61.031l6.157-6.156l-6.152-6.152c0.784,1.895,1.22,3.971,1.22,6.149
		C133.842,57.054,133.406,59.133,132.618,61.031z"/>
	<path fill="#CF1F25" d="M117.764,70.949c-2.177,0-4.25-0.434-6.144-1.217h-0.047l6.167,6.174l6.176-6.174h-0.01
		C122.014,70.515,119.94,70.949,117.764,70.949z"/>
	<path fill="#CF1F25" d="M132.618,61.031c-1.63,3.926-4.77,7.065-8.695,8.694l-0.006,0.006h8.701V61.031L132.618,61.031z"/>
	<polygon fill="#F05C22" points="102.905,90.74 102.908,90.737 102.905,90.736 	"/>
	<polygon fill="#F05C22" points="111.574,69.732 102.905,69.732 102.905,90.736 102.908,90.737 117.741,75.906 	"/>
	<polygon fill="#F05C22" points="132.618,90.803 132.618,90.746 132.589,90.773 	"/>
	<path fill="#F05C22" d="M132.609,90.741c-0.013,0.006-0.024,0.01-0.037,0.015l0.018,0.018l0.028-0.027v-0.005H132.609z"/>
	<polygon fill="#F05C22" points="132.609,90.741 132.618,90.741 132.618,90.738 	"/>
	<path fill="#F05C22" d="M132.572,90.756c0.013-0.005,0.024-0.009,0.037-0.015h-0.052L132.572,90.756z"/>
	<polygon fill="#F05C22" points="132.618,69.732 123.917,69.732 117.741,75.906 132.557,90.741 132.609,90.741 132.618,90.738 	"/>
	<polygon fill="#F05C22" points="153.631,69.732 153.628,69.729 153.627,69.732 	"/>
	<polygon fill="#F05C22" points="132.618,61.031 132.618,69.732 153.627,69.732 153.628,69.729 138.775,54.875 	"/>
	<polygon fill="#F05C22" points="81.894,69.732 81.897,69.732 81.895,69.73 	"/>
	<rect x="81.896" y="69.729" fill="#F05C22" width="0.005" height="0.002"/>
	<polygon fill="#F05C22" points="102.905,69.732 102.904,61.051 96.743,54.882 81.899,69.728 81.9,69.732 	"/>
	<path fill="#CF1F25" d="M101.686,54.872c0-2.176,0.434-4.251,1.217-6.144v-0.009l-6.16,6.163l6.161,6.169v-0.035
		C102.121,59.122,101.686,57.047,101.686,54.872z"/>
	<path fill="#CF1F25" d="M102.926,61.073l-0.022-0.022l0.001,8.681h8.669l-0.03-0.03C107.66,68.071,104.553,64.959,102.926,61.073z"
		/>
	<polygon fill="#F05C22" points="81.899,40.014 81.894,40.014 81.898,40.018 	"/>
	<polygon fill="#F05C22" points="102.903,48.719 102.903,40.014 81.899,40.014 81.898,40.018 96.743,54.882 	"/>
	<polygon fill="#FFFFFF" points="123.917,40.015 123.913,40.014 123.914,40.015 	"/>
	<polygon fill="#FFFFFF" points="132.623,48.723 132.618,48.713 132.618,48.718 	"/>
</g>
<g>
	<path fill="#F6921E" d="M43.312,121.95v4.369c-1.2,0.848-3.088,1.456-4.657,1.456c-3.408,0-5.984-2.464-5.984-5.729
		c0-3.249,2.641-5.697,6.178-5.697c1.664,0,3.424,0.64,4.576,1.664c0,0-0.675,0.82-0.874,1.037c-0.629,0.684-1.298,0.436-1.62,0.258
		c-0.659-0.366-1.4-0.574-2.099-0.574c-1.841,0-3.248,1.439-3.248,3.313c0,1.904,1.424,3.344,3.28,3.344
		c0.576,0,1.312-0.207,1.984-0.543v-1.659c0,0,0.003-1.238,1.294-1.238C42.45,121.95,43.312,121.95,43.312,121.95z"/>
	<path fill="#F6921E" d="M77.832,124.494h-0.08h-2.16v3.153h-2.849v-11.202h5.009c2.961,0,4.656,1.408,4.656,3.905
		c0,1.712-0.719,2.944-2.031,3.601l2.353,3.696c0,0-1.451,0-2.431,0c-0.841,0-1.208-0.763-1.208-0.763L77.832,124.494z
		 M77.751,122.256c1.232,0,1.952-0.626,1.952-1.809c0-1.17-0.72-1.762-1.952-1.762h-2.16v3.57H77.751z"/>
	<path fill="#F6921E" d="M122.561,122.943c0,2.959-1.969,4.832-5.105,4.832c-3.152,0-5.168-1.873-5.168-4.832v-6.498
		c0,0,1.002,0,1.425,0c1.084,0,1.423,0.949,1.423,1.426c0,0.475,0,5.072,0,5.072c0,1.52,0.977,2.447,2.337,2.447
		c1.345,0,2.257-0.928,2.257-2.447c0,0,0-4.6,0-5.104s0.452-1.395,1.375-1.395c0.984,0,1.457,0,1.457,0V122.943z"/>
	<path fill="#F6921E" d="M202.858,122.03c0,3.265-2.592,5.745-6.064,5.745c-3.457,0-6.049-2.464-6.049-5.745
		c0-3.265,2.592-5.681,6.049-5.681C200.266,116.35,202.858,118.782,202.858,122.03z M193.656,122.047
		c0,1.887,1.456,3.344,3.169,3.344c1.729,0,3.105-1.457,3.105-3.344c0-1.89-1.377-3.313-3.105-3.313
		C195.097,118.734,193.656,120.157,193.656,122.047z"/>
	<path fill="#F6921E" d="M157.297,116.425c2.869,0,4.521,1.411,4.521,3.912c0,2.628-1.651,4.151-4.521,4.151h-2.036
		c0,0,0,0.916,0,1.807c0,0.855-0.638,1.348-1.354,1.348c-0.644,0-1.499,0.005-1.499,0.005v-11.223H157.297z M155.261,122.244h1.893
		c1.251,0,1.972-0.625,1.972-1.811c0-1.171-0.721-1.764-1.972-1.764h-1.893V122.244z"/>
</g>
</svg>
